<svg version="1.1" id="Layer_1" xmlns="http://www.w3.org/2000/svg" xmlns:xlink="http://www.w3.org/1999/xlink" x="0px" y="0px"
	 width="100%" viewBox="0 0 543 543" enable-background="new 0 0 543 543" xml:space="preserve">
<path fill="#7C6EB0" opacity="1.000000" stroke="none" 
	d="
M294.000000,544.000000 
	C196.022430,544.000000 98.544853,544.000000 1.033640,544.000000 
	C1.033640,363.064056 1.033640,182.128128 1.033640,1.096089 
	C181.894257,1.096089 362.788605,1.096089 543.841431,1.096089 
	C543.841431,181.999893 543.841431,362.999939 543.841431,544.000000 
	C460.794708,544.000000 377.647369,544.000000 294.000000,544.000000 
M102.082283,97.599854 
	C85.976257,99.739159 75.274834,111.099548 75.266869,126.504868 
	C75.216995,222.984863 75.208847,319.464935 75.270699,415.944885 
	C75.281258,432.411377 88.088242,444.896393 104.561554,444.914001 
	C121.058113,444.931641 137.554718,444.916168 154.051300,444.915222 
	C155.799271,444.915131 157.547241,444.915222 159.740234,444.915222 
	C159.740234,461.963196 159.740234,478.227631 159.740234,495.007690 
	C161.457214,494.158325 162.630692,493.640106 163.745682,493.017181 
	C190.033096,478.329681 216.364044,463.718719 242.552536,448.856720 
	C247.509323,446.043732 252.409714,444.810181 258.111267,444.823883 
	C319.098297,444.970367 380.085785,444.928986 441.073151,444.903503 
	C457.312378,444.896729 469.904205,432.325195 469.907227,416.117859 
	C469.925354,319.471222 469.909668,222.824570 469.928314,126.177925 
	C469.929657,119.212616 467.595337,113.202194 463.220367,107.835052 
	C456.097412,99.096687 446.440033,97.214195 435.897430,97.217712 
	C326.920013,97.254051 217.942581,97.238045 108.965149,97.253059 
	C106.972092,97.253334 104.979073,97.455391 102.082283,97.599854 
z"/>
<path fill="#FCFDFE" opacity="1.000000" stroke="none" 
	d="
M102.534157,97.581573 
	C104.979073,97.455391 106.972092,97.253334 108.965149,97.253059 
	C217.942581,97.238045 326.920013,97.254051 435.897430,97.217712 
	C446.440033,97.214195 456.097412,99.096687 463.220367,107.835052 
	C467.595337,113.202194 469.929657,119.212616 469.928314,126.177925 
	C469.909668,222.824570 469.925354,319.471222 469.907227,416.117859 
	C469.904205,432.325195 457.312378,444.896729 441.073151,444.903503 
	C380.085785,444.928986 319.098297,444.970367 258.111267,444.823883 
	C252.409714,444.810181 247.509323,446.043732 242.552536,448.856720 
	C216.364044,463.718719 190.033096,478.329681 163.745682,493.017181 
	C162.630692,493.640106 161.457214,494.158325 159.740234,495.007690 
	C159.740234,478.227631 159.740234,461.963196 159.740234,444.915222 
	C157.547241,444.915222 155.799271,444.915131 154.051300,444.915222 
	C137.554718,444.916168 121.058113,444.931641 104.561554,444.914001 
	C88.088242,444.896393 75.281258,432.411377 75.270699,415.944885 
	C75.208847,319.464935 75.216995,222.984863 75.266869,126.504868 
	C75.274834,111.099548 85.976257,99.739159 102.534157,97.581573 
M102.409248,178.499573 
	C102.409714,255.815323 102.409378,333.131073 102.411888,410.446808 
	C102.412140,417.993835 102.420303,417.994629 110.150726,417.994781 
	C133.811935,417.995178 157.473145,417.994965 181.134354,417.994995 
	C182.913620,417.994995 184.692886,417.994934 186.924286,417.994934 
	C186.924286,428.443359 186.924286,438.346100 186.924286,448.915619 
	C188.976273,447.823364 190.411087,447.101776 191.806305,446.310425 
	C206.133606,438.183472 220.493713,430.113037 234.754562,421.870911 
	C239.327698,419.227844 243.940369,417.887970 249.343430,417.900757 
	C311.828644,418.048767 374.314453,417.949371 436.799713,418.085815 
	C441.552063,418.096191 443.098633,416.805664 443.091827,411.904907 
	C442.961151,318.093414 442.970612,224.281631 443.076294,130.470078 
	C443.080994,126.302025 442.297882,124.655930 437.652222,124.661285 
	C327.677765,124.788231 217.703094,124.780693 107.728561,124.678886 
	C103.595581,124.675064 102.273376,125.842583 102.327881,130.011597 
	C102.534828,145.838562 102.409973,161.669861 102.409248,178.499573 
z"/>
<path fill="#7C6EB0" opacity="1.000000" stroke="none" 
	d="
M102.409210,177.999557 
	C102.409973,161.669861 102.534828,145.838562 102.327881,130.011597 
	C102.273376,125.842583 103.595581,124.675064 107.728561,124.678886 
	C217.703094,124.780693 327.677765,124.788231 437.652222,124.661285 
	C442.297882,124.655930 443.080994,126.302025 443.076294,130.470078 
	C442.970612,224.281631 442.961151,318.093414 443.091827,411.904907 
	C443.098633,416.805664 441.552063,418.096191 436.799713,418.085815 
	C374.314453,417.949371 311.828644,418.048767 249.343430,417.900757 
	C243.940369,417.887970 239.327698,419.227844 234.754562,421.870911 
	C220.493713,430.113037 206.133606,438.183472 191.806305,446.310425 
	C190.411087,447.101776 188.976273,447.823364 186.924286,448.915619 
	C186.924286,438.346100 186.924286,428.443359 186.924286,417.994934 
	C184.692886,417.994934 182.913620,417.994995 181.134354,417.994995 
	C157.473145,417.994965 133.811935,417.995178 110.150726,417.994781 
	C102.420303,417.994629 102.412140,417.993835 102.411888,410.446808 
	C102.409378,333.131073 102.409714,255.815323 102.409210,177.999557 
M180.821808,258.586334 
	C179.063324,258.586334 177.304840,258.586334 175.621521,258.586334 
	C175.621521,271.454559 175.621521,283.525970 175.621521,295.513306 
	C188.228531,295.513306 200.447189,295.513306 212.759415,295.513306 
	C212.759415,283.145721 212.759415,271.182617 212.759415,258.586365 
	C202.327332,258.586365 192.043594,258.586365 180.821808,258.586334 
M332.237030,268.575684 
	C332.237030,277.517944 332.237030,286.460205 332.237030,295.608826 
	C345.046295,295.608826 357.255341,295.608826 369.667480,295.608826 
	C369.667480,283.234192 369.667480,271.169189 369.667480,258.905457 
	C357.178619,258.905457 344.942291,258.905457 332.237030,258.905457 
	C332.237030,262.014069 332.237030,264.808929 332.237030,268.575684 
M254.028748,294.169861 
	C255.006317,294.748962 255.978668,295.821381 256.962219,295.831757 
	C268.208130,295.950348 279.455750,295.907227 290.710510,295.907227 
	C290.710510,283.152313 290.710510,271.076447 290.710510,258.975342 
	C278.387604,258.975342 266.359009,258.975342 254.004166,258.975342 
	C254.004166,270.638123 254.004166,281.929657 254.028748,294.169861 
z"/>
<path fill="#FBFDFE" opacity="1.000000" stroke="none" 
	d="
M181.290833,258.586365 
	C192.043594,258.586365 202.327332,258.586365 212.759415,258.586365 
	C212.759415,271.182617 212.759415,283.145721 212.759415,295.513306 
	C200.447189,295.513306 188.228531,295.513306 175.621521,295.513306 
	C175.621521,283.525970 175.621521,271.454559 175.621521,258.586334 
	C177.304840,258.586334 179.063324,258.586334 181.290833,258.586365 
z"/>
<path fill="#FBFDFE" opacity="1.000000" stroke="none" 
	d="
M332.237030,268.089722 
	C332.237030,264.808929 332.237030,262.014069 332.237030,258.905457 
	C344.942291,258.905457 357.178619,258.905457 369.667480,258.905457 
	C369.667480,271.169189 369.667480,283.234192 369.667480,295.608826 
	C357.255341,295.608826 345.046295,295.608826 332.237030,295.608826 
	C332.237030,286.460205 332.237030,277.517944 332.237030,268.089722 
z"/>
<path fill="#FEFEFF" opacity="1.000000" stroke="none" 
	d="
M254.016449,293.695496 
	C254.004166,281.929657 254.004166,270.638123 254.004166,258.975342 
	C266.359009,258.975342 278.387604,258.975342 290.710510,258.975342 
	C290.710510,271.076447 290.710510,283.152313 290.710510,295.907227 
	C279.455750,295.907227 268.208130,295.950348 256.962219,295.831757 
	C255.978668,295.821381 255.006317,294.748962 254.016449,293.695496 
z"/>
</svg>