<svg width="100" height="88" viewBox="0 0 100 88" fill="none" xmlns="http://www.w3.org/2000/svg">
<path fill-rule="evenodd" clip-rule="evenodd" d="M99.9998 62.14V88H0V7.78567C8.51513 -1.89924 20.7706 0.727576 32.2728 3.19296C36.5498 4.10969 40.7227 5.00409 44.5604 5.2349C58.912 6.09804 76.3978 22.4977 82.6663 37.8615C85.7694 45.4672 92.228 53.0306 97.8993 59.6722C98.6147 60.5101 99.3177 61.3333 99.9998 62.14Z" fill="white" fill-opacity="0.6"/>
<path fill-rule="evenodd" clip-rule="evenodd" d="M99.9998 65.792V88H0V16.4162C0.438626 15.7234 0.93943 15.0295 1.51526 14.3315C10.0455 3.99176 22.5446 6.67079 34.262 9.18229C38.539 10.099 42.7119 10.9934 46.5496 11.2242C60.9011 12.0874 78.3869 28.487 84.6554 43.8509C87.7586 51.4566 94.2171 59.02 99.8884 65.6615C99.9256 65.705 99.9627 65.7485 99.9998 65.792Z" fill="white" fill-opacity="0.6"/>
<g clip-path="url(#clip0_448_1290)">
<path d="M44.5703 8.69206C44.5473 8.71077 43.5995 8.76689 41.9295 8.83704C41.5523 8.85575 41.2302 8.87914 41.2164 8.88381C41.198 8.89317 40.9818 8.91187 40.7334 8.93058C40.4803 8.94461 40.1721 8.96799 40.0433 8.97735C39.9191 8.99138 39.597 9.01009 39.3302 9.02412C39.0634 9.03815 38.6815 9.07089 38.4791 9.09895C38.2767 9.12701 37.9776 9.15975 37.812 9.1691C36.4502 9.26264 36.2616 9.28603 35.8798 9.42166C35.2587 9.6368 34.2005 9.92209 33.2114 10.1466C32.1257 10.3945 31.8496 10.4646 31.753 10.5254C31.6426 10.5956 31.615 10.7125 31.6978 10.7406C31.7392 10.7546 31.753 11.2269 31.7484 12.471C31.7438 13.4111 31.7392 14.2015 31.7346 14.2249C31.73 14.2436 31.73 14.2716 31.7346 14.2857C31.7484 14.3231 31.7484 31.609 31.7392 31.6604C31.7346 31.6838 31.73 31.7166 31.7346 31.7306C31.7622 31.8101 31.7622 32.535 31.7392 32.97C31.7254 33.2506 31.7208 33.5125 31.73 33.5406C31.7392 33.5733 31.799 33.6014 31.8542 33.6014C31.914 33.6014 31.9739 33.6201 31.9877 33.6388C31.9969 33.6575 31.8634 33.8071 31.6886 33.9708C31.3298 34.2982 31.2424 34.4666 31.1181 35.0278C31.0123 35.5189 30.7179 36.4402 30.4649 37.0857C29.9818 38.311 29.4435 39.2277 28.7949 39.9433C28.5878 40.1724 28.3624 40.4203 28.2934 40.4998C28.229 40.5746 28.0266 40.7991 27.8517 40.9909C26.973 41.9497 26.904 42.0526 26.973 42.2303C26.9868 42.2724 26.9592 42.3753 26.9132 42.4641C26.8304 42.6231 26.8396 42.7822 26.9454 43.0955C26.973 43.1797 26.9776 43.189 27.042 43.5164C27.0696 43.6567 27.1018 43.8578 27.111 43.9607C27.1248 44.0636 27.1662 44.3349 27.2076 44.5687C27.2491 44.7979 27.3135 45.2048 27.3457 45.4667C27.3825 45.7286 27.4331 45.9905 27.4607 46.0466C27.4929 46.0981 27.5021 46.187 27.4883 46.2431C27.4745 46.2992 27.4883 46.3694 27.5159 46.4021C27.5435 46.4348 27.5527 46.5097 27.5389 46.5611C27.5251 46.6172 27.5297 46.7716 27.5573 46.9025C27.5803 47.0335 27.6171 47.286 27.6401 47.4684C27.6677 47.6462 27.7091 47.9221 27.7367 48.0764C27.7643 48.2308 27.7965 48.4412 27.8103 48.5441C27.8195 48.647 27.8885 48.9838 27.9621 49.2924C28.0358 49.6011 28.1186 49.9893 28.1462 50.1577C28.2658 50.8265 28.4958 51.7712 28.5648 51.8647C28.6016 51.9115 28.643 52.0892 28.6798 52.3278C28.6936 52.3979 28.7718 52.6411 28.8593 52.8656C28.9421 53.0854 29.0479 53.3707 29.0939 53.497C29.1399 53.6233 29.2457 53.8524 29.3285 54.0068C29.4159 54.1564 29.4849 54.2967 29.4849 54.3108C29.4849 54.3762 29.6966 54.8673 29.8208 55.0871C29.8898 55.2134 29.945 55.321 29.945 55.335C29.945 55.3771 30.3591 56.0178 30.6535 56.4247C31.0629 57 32.3649 58.3142 32.6639 58.4545C32.71 58.4779 32.7514 58.5153 32.7514 58.5387C32.7514 58.5574 32.779 58.5761 32.8158 58.5761C32.8526 58.5761 32.8894 58.6042 32.9032 58.6369C32.9216 58.693 33.4506 59.0766 33.6899 59.2122C33.8233 59.287 34.6054 59.6846 34.9136 59.8295C35.2311 59.9792 35.2725 59.9979 35.6957 60.1382C36.4916 60.4001 36.6987 60.4562 36.9149 60.475C37.0437 60.489 37.2921 60.517 37.4762 60.5404C38.2675 60.648 38.9161 60.648 39.4452 60.5498C40.0939 60.4282 40.8898 60.0868 41.0186 59.8763C41.037 59.8389 41.1796 59.7033 41.3314 59.5723C41.6949 59.2543 42.2976 58.651 42.7576 58.1505C42.9601 57.9307 43.4247 57.4303 43.7928 57.0374C44.1608 56.6399 44.4921 56.2751 44.5289 56.219C44.5657 56.1582 44.6439 56.0646 44.7037 56.0038C44.7589 55.943 44.8049 55.8635 44.8049 55.8308C44.8049 55.798 44.8233 55.77 44.8463 55.77C44.8647 55.77 44.9889 55.6297 45.1177 55.4519C45.2465 55.2789 45.3984 55.0825 45.4582 55.0123C45.7618 54.6522 46.2311 54.0021 46.3967 53.7028C46.4289 53.6513 46.5117 53.5438 46.5853 53.4642C46.6589 53.3801 46.8199 53.1649 46.9396 52.9825C47.0592 52.7954 47.1972 52.6084 47.2432 52.5663C47.2938 52.5195 47.3352 52.4634 47.3352 52.44C47.3352 52.4166 47.3858 52.3278 47.4502 52.2436C47.5146 52.1594 47.5652 52.0752 47.5652 52.0565C47.5652 52.0378 47.6158 51.9536 47.6803 51.8694C47.7447 51.7852 47.8413 51.6309 47.9011 51.528C47.9977 51.3503 48.2093 50.9855 48.4164 50.6534C48.6786 50.2278 48.8994 49.8303 48.8994 49.7929C48.8994 49.7648 48.9132 49.7367 48.9362 49.7274C48.9546 49.718 49.0696 49.5122 49.1938 49.269C49.3181 49.0258 49.4653 48.7593 49.5205 48.6844C49.7827 48.3196 50.8777 45.897 50.8777 45.6725C50.8777 45.621 50.9007 45.5649 50.9237 45.5509C50.9513 45.5322 50.9605 45.5041 50.9467 45.4807C50.9375 45.462 50.9927 45.3124 51.0755 45.1487C51.2503 44.8073 51.5217 44.087 51.5217 43.9748C51.5217 43.9327 51.5401 43.8859 51.5586 43.8719C51.577 43.8578 51.6552 43.6661 51.7242 43.4369C51.7932 43.2124 51.8806 42.9505 51.9128 42.8617C51.9496 42.7728 52.0094 42.581 52.0508 42.4407C52.244 41.7579 52.3222 41.51 52.3959 41.3183C52.4419 41.2014 52.5431 40.888 52.6259 40.6167C52.7041 40.3455 52.8099 40.0087 52.8559 39.8684C53.0353 39.3119 53.1412 38.9377 53.247 38.4654C53.5092 37.3008 53.6748 36.6039 53.73 36.4075C53.7622 36.2906 53.7944 36.1456 53.8036 36.0801C53.8128 36.0146 53.8726 35.7013 53.9371 35.3786C54.0015 35.0559 54.0659 34.7098 54.0751 34.6069C54.1073 34.2327 54.1809 33.5873 54.2131 33.3909C54.2269 33.3114 54.2453 33.157 54.2591 33.0495C54.2683 32.9372 54.3005 32.7034 54.3281 32.535C54.3557 32.362 54.3879 32.1141 54.3971 31.9878C54.4063 31.8569 54.4293 31.6698 54.4431 31.5669C54.4937 31.2302 54.5213 30.9776 54.5811 30.2574C54.5949 30.103 54.6133 29.9113 54.6271 29.8364C54.6363 29.7569 54.6547 29.5511 54.6685 29.3781C54.7146 28.8402 54.7376 28.6251 54.7652 28.5035C54.7836 28.3959 54.8296 27.8815 54.8572 27.381C54.8664 27.2641 54.8802 26.7964 54.894 26.3334C54.9078 25.8751 54.9262 25.4916 54.9354 25.4869C54.9492 25.4729 54.9446 23.995 54.9308 22.634C54.9308 22.4001 54.9308 22.1803 54.9308 22.1429C54.9354 22.1055 54.9216 21.8716 54.9078 21.6284C54.8434 20.6603 54.825 20.3236 54.8066 19.9213C54.7974 19.6875 54.779 19.3741 54.7652 19.2198C54.7514 19.0655 54.7284 18.7802 54.7146 18.5884C54.7008 18.3967 54.6685 18.1114 54.6455 17.957C54.6041 17.6951 54.5489 17.19 54.4891 16.5774C54.4753 16.437 54.4477 16.2546 54.4247 16.1705C54.4017 16.091 54.3925 16.0161 54.4017 16.0068C54.4109 15.9927 54.3879 15.8384 54.3511 15.6607C54.3143 15.4829 54.2729 15.221 54.2591 15.0807C54.2407 14.9404 54.2085 14.8001 54.1855 14.7721C54.1625 14.744 54.1441 14.6364 54.1487 14.5382C54.1487 14.44 54.1119 14.1874 54.0613 13.9817C54.0107 13.7759 53.9555 13.4999 53.9371 13.3737C53.9187 13.2427 53.8864 13.1024 53.8634 13.0603C53.8404 13.0135 53.8082 12.8966 53.799 12.8031C53.7898 12.7049 53.7484 12.4991 53.7024 12.3447C53.6104 11.9986 53.546 11.7274 53.5184 11.573C53.5046 11.5076 53.4586 11.3485 53.408 11.2223C53.3574 11.0913 53.2884 10.8668 53.2516 10.7172C53.1228 10.2074 52.8927 9.96886 52.3545 9.79581C52.0048 9.68356 51.83 9.6368 51.7794 9.65083C51.761 9.6555 51.7196 9.6368 51.6874 9.61341C51.6598 9.59003 51.554 9.55729 51.4527 9.53858C51.3515 9.51987 51.1675 9.47778 51.0433 9.44036C50.8501 9.38424 50.2474 9.26264 49.8885 9.2112C49.8379 9.20184 49.6539 9.16442 49.4745 9.12701C49.2997 9.08492 49.019 9.04283 48.8534 9.02412C48.6878 9.01009 48.3473 8.96799 48.0943 8.9259C47.2478 8.79963 46.4473 8.73883 45.541 8.7248C45.0487 8.72012 44.6347 8.70609 44.6163 8.69674C44.6025 8.6827 44.5795 8.6827 44.5703 8.69206ZM47.0362 9.2299C47.2386 9.25797 47.6204 9.31409 47.8873 9.3515C49.3595 9.56664 49.999 9.66953 50.5556 9.80049C50.8961 9.87532 51.2595 9.9595 51.3607 9.97821C51.6184 10.0297 51.9036 10.1138 51.9726 10.1653C52.0186 10.1933 51.9956 10.2214 51.8806 10.2635C51.5586 10.3804 50.4268 10.7873 50.1646 10.8762C50.0128 10.9276 49.8471 10.9884 49.7965 11.0118C49.7459 11.0352 49.4101 11.1521 49.0558 11.2784C48.5176 11.4608 48.3841 11.4935 48.2967 11.4514C48.2369 11.4234 48.0713 11.3626 47.9333 11.3205C47.7953 11.2784 47.579 11.1989 47.4502 11.1428C47.1742 11.0258 47.0868 10.9931 46.8752 10.9183C46.7877 10.8855 46.6543 10.8341 46.5761 10.8013C46.5025 10.7686 46.2817 10.6938 46.0931 10.6377C45.9044 10.5815 45.656 10.5067 45.541 10.4693C45.426 10.4366 45.2005 10.3711 45.0349 10.329C44.8693 10.2916 44.6209 10.2261 44.4828 10.1887C44.3448 10.1466 44.1838 10.1092 44.1332 10.0998C44.078 10.0951 43.8388 10.0437 43.6041 9.98756C43.3649 9.93612 42.9325 9.84726 42.6426 9.79581C42.3528 9.73969 41.9709 9.66953 41.7915 9.63212C41.4005 9.55261 40.7978 9.48713 40.3929 9.4731C40.3009 9.46843 40.2503 9.44972 40.2779 9.43101C40.3285 9.37957 41.3867 9.30006 42.8266 9.2299C43.4201 9.20184 43.9124 9.17378 43.9216 9.16442C43.963 9.12701 46.7187 9.18313 47.0362 9.2299ZM40.1721 9.4544C40.1399 9.46375 40.0847 9.46375 40.0571 9.4544C40.0249 9.44036 40.0479 9.43101 40.1123 9.43101C40.1767 9.43101 40.1997 9.44036 40.1721 9.4544ZM40.9174 9.95483C41.6627 10.0577 41.9065 10.0998 42.8036 10.2869C42.9831 10.3243 43.2499 10.3757 43.4017 10.4085C43.9906 10.5161 44.3264 10.5909 44.4828 10.633C44.5703 10.661 44.7773 10.7218 44.9429 10.7686C45.1085 10.8154 45.3754 10.8949 45.541 10.9417C46.0701 11.0913 46.9626 11.4093 47.3582 11.5918C47.4364 11.6292 47.5744 11.6853 47.6711 11.718C47.7999 11.7648 47.8413 11.8069 47.8413 11.8817C47.8413 11.9425 47.8735 11.994 47.9149 12.0033C47.9839 12.0173 47.9931 12.7002 47.9839 20.6229C47.9839 25.3559 47.9839 29.5231 47.9839 29.8832C47.9885 30.8046 47.9793 35.43 47.9747 35.5423C47.9609 35.7434 47.8367 36.2766 47.7677 36.4215C47.6573 36.646 47.3168 37.1511 47.28 37.1558C47.257 37.1558 47.2432 37.1231 47.2432 37.0857C47.2432 36.8799 46.5991 36.4075 46.0931 36.2391C45.955 36.197 45.8308 36.155 45.8262 36.1456C45.817 36.1409 45.84 36.0754 45.8768 36.0006C45.9872 35.7948 46.0931 35.4815 46.0931 35.3646C46.0931 35.3038 46.1161 35.2336 46.1483 35.2009C46.1897 35.1588 46.2035 32.4555 46.2035 23.9342L46.2081 12.7189L46.0747 12.5692C45.9366 12.4055 45.7802 12.326 45.1039 12.0594C44.4322 11.7929 44.262 11.7274 43.6317 11.5076C43.3051 11.3953 42.8404 11.2269 42.6104 11.1334C41.9525 10.8809 40.7656 10.6143 39.5372 10.4506C39.3624 10.4272 39.1738 10.3991 39.1232 10.3851C38.6953 10.2962 37.49 10.2495 35.9396 10.2588C35.1207 10.2682 34.4536 10.2588 34.4536 10.2495C34.4536 10.1746 35.6911 9.93612 36.2478 9.89403C37.2185 9.82855 40.2549 9.86596 40.9174 9.95483ZM52.8973 11.1381C53.0261 11.545 53.1596 12.0361 53.201 12.2278C53.2424 12.4196 53.293 12.616 53.3206 12.6628C53.3436 12.7095 53.3528 12.7657 53.339 12.789C53.3252 12.8124 53.3436 12.9106 53.3804 13.0089C53.4172 13.1071 53.4678 13.3222 53.5 13.4906C53.5276 13.659 53.5782 13.8881 53.615 14.005C53.6472 14.122 53.6886 14.3184 53.7024 14.4493C53.7162 14.5756 53.7484 14.8188 53.776 14.9872C53.8036 15.1556 53.8312 15.3333 53.8404 15.3847C53.8496 15.4362 53.868 15.5391 53.8818 15.6186C53.8956 15.6934 53.9233 15.8618 53.9371 15.9927C53.9509 16.119 53.9831 16.3154 54.0107 16.4277C54.0337 16.5399 54.0429 16.6522 54.0291 16.6756C54.0107 16.6989 54.0153 16.741 54.0291 16.7691C54.0475 16.7972 54.0705 16.9468 54.0797 17.1058C54.0935 17.2649 54.1119 17.4473 54.1211 17.5127C54.1625 17.7513 54.2361 18.3405 54.2545 18.6352C54.2683 18.8036 54.2913 19.0655 54.3051 19.2198C54.3235 19.3741 54.3419 19.6875 54.3511 19.9213C54.3603 20.1505 54.3787 20.5013 54.3925 20.693C54.4937 21.8763 54.4937 26.3007 54.3971 27.4512C54.3833 27.5775 54.3649 27.83 54.3557 28.0124C54.3419 28.1902 54.3189 28.4334 54.3051 28.5503C54.2637 28.8262 54.2499 28.9291 54.2177 29.322C54.1993 29.4997 54.1763 29.7008 54.1671 29.7663C54.1579 29.8318 54.1349 30.0609 54.1211 30.2807C54.1073 30.5006 54.0751 30.856 54.0475 31.0758C54.0153 31.2956 53.9877 31.5248 53.9785 31.5903C53.9693 31.6558 53.9509 31.8007 53.9371 31.9177C53.8772 32.4555 53.7714 33.2319 53.73 33.5078C53.7024 33.6762 53.6702 33.9474 53.661 34.1111C53.6334 34.5742 53.5874 34.9202 53.5414 35.0839C53.5138 35.1634 53.454 35.4581 53.4034 35.7387C53.293 36.3374 53.247 36.5525 53.1826 36.805C53.155 36.9079 53.0721 37.2447 52.9985 37.5534C52.7823 38.456 52.5799 39.2745 52.5339 39.4241C52.5063 39.499 52.313 40.107 52.0968 40.7711C51.8852 41.4305 51.6782 42.104 51.6368 42.2677C51.5954 42.4267 51.5448 42.5998 51.5263 42.6512C51.5033 42.7026 51.4297 42.9131 51.3607 43.1189C51.1215 43.8345 51.0939 43.914 50.9835 44.218C50.9191 44.3863 50.7765 44.7278 50.666 44.985C50.5556 45.2375 50.4636 45.4807 50.4636 45.5228C50.4636 45.5649 50.39 45.7801 50.298 45.9952C50.2106 46.215 50.1232 46.4255 50.1094 46.4629C49.9529 46.8838 49.3963 48.0203 49.0374 48.661C48.8396 49.0071 48.6096 49.4234 48.5268 49.5824C48.1955 50.1998 47.0868 52.0284 46.8614 52.3231C46.7279 52.4961 46.5209 52.7814 46.3921 52.9638C46.2679 53.1462 46.0655 53.4362 45.9458 53.6092C45.6652 54.0161 45.4812 54.2593 45.1821 54.6288C45.0487 54.7925 44.7727 55.1526 44.5703 55.4286C44.3632 55.7092 44.0826 56.0599 43.94 56.2143C43.3189 56.8831 42.155 58.1412 42.0675 58.23C42.0169 58.2815 41.9295 58.3844 41.8697 58.4545C41.7547 58.5948 41.6857 58.5902 41.7455 58.4498C41.9111 58.0617 41.9755 56.5697 41.8789 55.349C41.8651 55.1292 41.8421 54.858 41.8329 54.741C41.8283 54.6241 41.8099 54.395 41.7915 54.2266C41.7777 54.0582 41.7593 53.7121 41.7455 53.4549C41.7317 53.1977 41.7133 52.8095 41.7041 52.5897C41.6581 51.6823 41.6259 50.8171 41.6075 49.7134C41.5937 49.0679 41.5615 48.3243 41.5339 48.053C41.5109 47.7818 41.4787 47.4357 41.4695 47.2814C41.4557 47.127 41.4373 46.9072 41.4281 46.7903C41.4143 46.6734 41.3913 46.2945 41.3775 45.9484L41.3498 45.317L41.5569 45.0692C41.6719 44.9289 41.7685 44.8026 41.7685 44.7886C41.7685 44.7698 41.8743 44.6389 42.0031 44.4986C42.2332 44.2414 42.7024 43.5538 42.9325 43.1282C43.0015 43.0066 43.0981 42.8476 43.1441 42.7775C43.1901 42.7073 43.2683 42.5904 43.3143 42.5156C43.3603 42.4407 43.4385 42.3238 43.4799 42.2583C43.5259 42.1929 43.5765 42.104 43.5903 42.0666C43.6087 42.0292 43.6501 41.9637 43.6777 41.9263C43.71 41.8889 43.8066 41.7205 43.894 41.5521C44.0458 41.2668 44.1148 41.1359 44.354 40.7196C44.5243 40.4203 44.6715 40.1397 44.9061 39.658C45.2051 39.05 45.1959 39.078 45.3754 38.5589C45.5226 38.1286 45.6974 37.6796 45.771 37.5253C45.8262 37.4177 45.6606 37.1558 45.541 37.1558C45.4352 37.1558 45.3662 37.2961 45.1223 37.9743C45.0395 38.2034 44.9567 38.4139 44.9429 38.442C44.9245 38.4654 44.8831 38.5729 44.8509 38.6758C44.7543 38.9845 44.3218 39.8778 43.9538 40.5279C43.7652 40.8646 43.6087 41.1452 43.6087 41.1546C43.6087 41.1873 43.1763 41.9122 42.9693 42.2256C42.8496 42.408 42.661 42.7167 42.5506 42.9084C42.224 43.4837 41.8283 44.0309 41.1888 44.7979L41.037 44.9803L40.6782 44.9008C40.4803 44.8634 40.1123 44.7839 39.8593 44.7278C39.6062 44.6763 39.3072 44.6108 39.1922 44.5921C39.0772 44.5687 38.8287 44.5173 38.6401 44.4752C38.4515 44.4331 38.18 44.3817 38.042 44.3583C37.904 44.3302 37.6878 44.2881 37.559 44.2647C37.4348 44.2367 37.2369 44.1946 37.1219 44.1759C37.0069 44.1525 36.7217 44.0917 36.487 44.0356C36.2524 43.9794 35.9948 43.928 35.912 43.914C35.8291 43.9046 35.4151 43.8158 34.9826 43.7269C34.5548 43.6334 34.0671 43.5351 33.9015 43.5118C33.7359 43.4884 33.5703 43.4556 33.5335 43.4416C33.4967 43.4229 33.3816 43.3948 33.2804 43.3761C33.1792 43.3527 32.8894 43.2966 32.6363 43.2452C32.3833 43.189 32.1027 43.1329 32.0153 43.1189C31.9279 43.1049 31.4494 43.0066 30.9571 42.9038C30.4649 42.8009 29.945 42.698 29.807 42.6746C29.669 42.6512 29.4711 42.6091 29.3699 42.581C29.2687 42.553 29.1261 42.5202 29.0479 42.5062C28.9237 42.4922 28.3302 42.3659 27.8517 42.2537C27.7505 42.2303 27.6079 42.1975 27.5343 42.1835L27.4055 42.1554L27.6953 41.8421C28.1738 41.3276 29.1629 40.2239 29.4803 39.8497C29.5862 39.7234 29.738 39.513 29.8116 39.382C29.9864 39.078 30.0324 39.0032 30.1796 38.7694C30.2808 38.6103 30.5063 38.1333 30.8007 37.4551C31.0721 36.8284 31.4632 35.6171 31.5782 35.0372C31.6564 34.649 31.6794 34.6069 31.868 34.4292C31.9785 34.3216 32.1855 34.1252 32.3235 33.9942L32.5719 33.751L32.8342 33.8165C33.17 33.8913 34.0257 34.0737 34.1775 34.0971C34.3018 34.1158 34.7342 34.2 35.4427 34.345C35.6957 34.3964 36.1098 34.4759 36.3628 34.5274C36.6158 34.5788 37.1449 34.6864 37.536 34.7706C37.927 34.8548 38.4469 34.9577 38.6861 35.0044C39.045 35.0746 39.597 35.1915 40.1353 35.3084C40.3469 35.3552 40.9496 35.4768 41.4235 35.5703C41.9847 35.6779 42.523 35.7855 42.8036 35.8463C42.9048 35.865 43.4799 35.9866 44.0872 36.1082C45.0763 36.314 45.1867 36.342 45.2235 36.4402C45.2511 36.5151 45.311 36.5525 45.4352 36.5712C46.0839 36.6694 46.5347 36.8846 46.8982 37.2774C47.1236 37.5206 47.2892 37.7404 47.2892 37.7966C47.2892 37.8199 47.3398 37.8901 47.4042 37.9509C47.4686 38.0117 47.5192 38.0772 47.5192 38.0959C47.5192 38.138 47.6941 38.4139 48.1863 39.1435C48.3381 39.368 48.5038 39.6206 48.5544 39.7001C48.7384 39.9994 49.1064 40.4998 49.1616 40.5372C49.1938 40.5559 49.2215 40.598 49.2215 40.6214C49.2215 40.6495 49.2859 40.7617 49.3595 40.874C49.4377 40.9862 49.4975 41.0985 49.4975 41.1218C49.4975 41.1452 49.5251 41.192 49.5619 41.2201C49.5941 41.2481 49.7275 41.4212 49.8471 41.6036C49.9713 41.786 50.1048 41.9824 50.1416 42.0385C50.1784 42.0946 50.252 42.2069 50.3026 42.2911C50.3532 42.3706 50.4084 42.4407 50.4314 42.4407C50.4498 42.4407 50.4636 42.4735 50.4636 42.5109C50.4636 42.5483 50.482 42.581 50.505 42.581C50.528 42.581 50.6292 42.7167 50.735 42.8804C50.8409 43.0441 50.9697 43.189 51.0249 43.2031C51.1491 43.2405 51.3377 43.161 51.3377 43.0768C51.3377 43.0347 51.2089 42.8196 51.0525 42.5951C50.8961 42.3706 50.6522 42.0151 50.5188 41.8094C50.3808 41.6036 50.068 41.1593 49.8195 40.8272C49.5757 40.4905 49.2951 40.1023 49.1938 39.962C49.019 39.7001 48.812 39.4054 48.6464 39.1669C48.5958 39.0921 48.3703 38.774 48.1403 38.4607C47.9149 38.1473 47.6711 37.8153 47.6066 37.7217L47.487 37.5534L47.7171 37.2961C47.8459 37.1558 47.9747 36.9734 48.0115 36.8986C48.0437 36.8191 48.0897 36.7255 48.1127 36.6881C48.2415 36.4449 48.2783 36.3467 48.3565 35.9866C48.4348 35.6171 48.444 35.3458 48.4394 31.8241C48.4394 29.7522 48.4348 28.0171 48.4348 27.9657C48.4348 27.9142 48.4394 27.4606 48.4394 26.9601C48.444 25.9312 48.444 24.5749 48.4394 19.0795C48.4394 16.9702 48.4394 14.875 48.444 14.426C48.444 13.977 48.4486 13.5748 48.444 13.5373C48.444 13.4999 48.444 13.1726 48.4486 12.8124C48.4486 12.4523 48.4486 12.0875 48.444 12.0033C48.4394 11.8209 48.444 11.8162 49.3411 11.5216C49.6677 11.414 50.1232 11.255 50.3486 11.1755C50.5786 11.0913 50.9513 10.965 51.1767 10.8996C51.4067 10.8294 51.6276 10.7546 51.669 10.7265C51.715 10.7031 51.7886 10.6844 51.8346 10.6844C51.8806 10.6844 51.9358 10.6704 51.9496 10.6517C51.9818 10.6189 52.5247 10.4225 52.6121 10.4085C52.6443 10.4085 52.7593 10.7031 52.8973 11.1381ZM38.3089 10.7546C39.091 10.8201 39.3532 10.8528 39.6982 10.9183C39.8133 10.9417 40.0709 10.9837 40.2733 11.0118C40.4757 11.0399 40.715 11.082 40.8024 11.1054C40.8898 11.1287 41.0876 11.1708 41.2394 11.1989C41.6213 11.2784 41.8467 11.3439 42.4586 11.5684C42.7484 11.6759 43.2453 11.849 43.5627 11.9566C43.8802 12.0594 44.2022 12.1717 44.2758 12.2044C44.6071 12.3541 45.3386 12.6487 45.3754 12.6487C45.3984 12.6487 45.4904 12.6815 45.5824 12.7236L45.748 12.7984L45.7388 23.9108L45.7342 35.0278L45.6192 35.416C45.495 35.8322 45.3018 36.183 45.2097 36.155C45.1315 36.1269 44.7451 36.0427 43.2177 35.706C42.5092 35.547 41.8053 35.3926 41.6535 35.3552C41.3683 35.285 40.5033 35.098 39.3992 34.8594C38.6999 34.7098 37.5682 34.4526 36.9287 34.2982C36.7079 34.2468 36.4824 34.1953 36.4226 34.186C36.3122 34.1673 36.1236 34.1252 35.0516 33.8866C34.6836 33.8071 34.2926 33.7183 34.1775 33.6949C33.9889 33.6528 33.8785 33.6294 33.3954 33.5078C33.308 33.4844 33.0596 33.433 32.8434 33.3909C32.6271 33.3441 32.3971 33.288 32.3281 33.2646L32.2085 33.2178L32.1993 24.8415C32.1993 20.23 32.1947 16.2266 32.1993 15.946C32.2039 15.6607 32.2085 14.4213 32.2131 13.1913L32.2223 10.951L32.3373 10.9183C32.6685 10.8201 33.17 10.7593 33.8095 10.7359C35.2173 10.6797 37.5498 10.6938 38.3089 10.7546ZM27.7367 42.6278C27.8011 42.6512 28.1094 42.7167 28.4268 42.7728C28.7442 42.8289 29.1077 42.8944 29.2319 42.9178C29.6506 42.9926 29.692 42.9973 30.037 43.0721C30.4925 43.1657 30.6443 43.1984 31.9923 43.465C32.6271 43.5913 33.6807 43.8064 34.3386 43.942C34.9964 44.073 35.7003 44.2133 35.9028 44.246C36.1052 44.2788 36.3628 44.3302 36.4778 44.3583C36.5928 44.3863 36.7493 44.4144 36.8229 44.4284C37.0391 44.4612 38.1202 44.6716 38.5021 44.7558C38.6907 44.7979 39.0036 44.8587 39.1922 44.8961C39.3808 44.9335 39.5878 44.971 39.6522 44.985C39.7166 44.999 39.9007 45.0318 40.0663 45.0598C40.2319 45.0879 40.4297 45.1346 40.5079 45.158C40.5862 45.1814 40.692 45.2001 40.7426 45.2001C40.8622 45.2001 40.899 45.3685 40.922 45.9952C40.945 46.7295 40.9772 47.1598 41.014 47.2159C41.0278 47.2439 41.0508 47.4357 41.06 47.6462C41.0692 47.8566 41.0876 48.1887 41.1014 48.3804C41.1198 48.5722 41.1382 49.2129 41.1474 49.8069C41.1658 50.906 41.2118 52.3418 41.244 52.6364C41.2532 52.7253 41.2716 53.0106 41.2808 53.2678C41.3084 53.7776 41.3545 54.5446 41.3729 54.7644C41.5477 56.5978 41.4603 58.1552 41.152 58.8146C41.1106 58.9035 40.899 59.1701 40.6736 59.4133C40.2779 59.8436 40.2687 59.8482 39.8593 59.9839C39.6338 60.0587 39.344 60.1335 39.2152 60.1429C38.9483 60.171 38.0466 60.1756 38.0052 60.1476C37.9868 60.1382 37.8074 60.1148 37.605 60.1008C36.9287 60.0447 36.6895 59.9886 35.912 59.722C34.8124 59.3431 33.7313 58.7772 33.147 58.2768C33.0228 58.1739 32.825 58.0149 32.71 57.9354C32.1855 57.5519 30.9341 56.1769 30.7041 55.7232C30.6719 55.6577 30.5661 55.4894 30.4741 55.349C30.3268 55.1199 30.037 54.5493 29.945 54.2967C29.9266 54.2453 29.8484 54.0676 29.7702 53.8992C29.5908 53.5017 29.5263 53.3473 29.3469 52.8703C29.2641 52.6505 29.1675 52.4026 29.1353 52.3184C29.0985 52.2342 29.0709 52.1079 29.0709 52.0378C29.0709 51.963 29.0525 51.8881 29.0295 51.8601C28.9927 51.818 28.8409 51.2895 28.8179 51.1164C28.8133 51.065 28.7949 50.9902 28.7764 50.9527C28.7626 50.9153 28.7396 50.8171 28.7304 50.7423C28.7212 50.6628 28.6798 50.443 28.6384 50.2512C28.597 50.0594 28.528 49.7414 28.4912 49.5497C28.4498 49.3579 28.3992 49.1287 28.3716 49.0446C28.3486 48.9604 28.321 48.8247 28.3118 48.7406C28.298 48.5535 28.2106 48.0624 28.1416 47.749C28.114 47.6181 28.091 47.4544 28.0956 47.3842C28.1048 47.3094 28.0864 47.1738 28.0634 47.0802C28.0404 46.9867 28.0036 46.7903 27.9897 46.65C27.9391 46.2057 27.8701 45.7754 27.7137 44.826C27.6493 44.4284 27.5849 44.0262 27.5757 43.9327C27.5481 43.7269 27.4377 43.1657 27.3503 42.8009L27.2859 42.5249L27.4561 42.5577C27.5481 42.5717 27.6723 42.6044 27.7367 42.6278Z" fill="#373737"/>
<path d="M36.1328 15.3426C35.7602 15.5391 35.4013 16.0769 35.3369 16.5399C35.3185 16.6755 35.3047 16.9468 35.3093 17.1432C35.3139 17.6016 35.4335 17.8728 35.774 18.2002C36.0592 18.4762 36.1696 18.5136 36.7309 18.5136C37.3382 18.5136 37.9224 18.2096 38.1433 17.7793C38.2261 17.6203 38.2491 17.494 38.2583 17.1386C38.2721 16.4978 38.2169 16.3295 37.8994 16.0161C37.283 15.4128 37.0345 15.2678 36.5837 15.2678C36.3904 15.2678 36.2156 15.2959 36.1328 15.3426ZM36.9333 15.9319C37.1817 16.0442 37.3658 16.2079 37.5268 16.4604C37.6648 16.6802 37.6924 16.9187 37.6188 17.2929C37.5728 17.508 37.5222 17.6063 37.352 17.7887L37.1449 18.0178L36.7677 18.0459C36.4456 18.0739 36.3674 18.0646 36.2156 17.9898C35.8568 17.8027 35.7142 17.4566 35.7556 16.872C35.7878 16.4323 35.8706 16.2079 36.1006 15.96C36.2524 15.7963 36.2708 15.7916 36.4963 15.815C36.6251 15.829 36.8229 15.8805 36.9333 15.9319Z" fill="#373737"/>
</g>
<g clip-path="url(#clip1_448_1290)">
<path d="M71.6156 27.8916C71.5906 27.911 71.1813 27.9352 69.8736 27.9884C69.4743 28.003 68.8254 28.0465 68.426 28.0804C68.0267 28.1143 67.6574 28.1433 67.6024 28.1433C67.253 28.1482 66.2098 28.2208 65.7057 28.2789C65.3762 28.3176 64.8471 28.3612 64.5327 28.3757C64.2182 28.3902 63.759 28.4241 63.5094 28.4532C63.2648 28.4822 62.9953 28.5113 62.9105 28.5209C62.5311 28.5597 62.1817 28.6468 61.9072 28.763C61.7474 28.8356 61.5578 28.9034 61.4879 28.9131C61.418 28.9276 61.1934 28.9857 60.9887 29.0486C60.7841 29.1115 60.3898 29.2084 60.1152 29.2665C59.8407 29.3294 59.4214 29.4262 59.1818 29.494C58.9422 29.5569 58.7126 29.6102 58.6677 29.6102C58.5429 29.6102 58.3083 29.7457 58.2734 29.8377C58.2534 29.8861 58.2634 29.9442 58.3033 29.9733C58.3582 30.012 58.3682 32.1517 58.3682 41.6885C58.3632 48.1077 58.3482 53.3844 58.3283 53.4135C58.2584 53.5248 58.3832 53.6701 58.5479 53.6701C58.6328 53.6701 58.6877 53.6894 58.6677 53.7185C58.6527 53.7427 58.6976 53.7766 58.7675 53.7959C58.8374 53.8105 58.8923 53.8395 58.8923 53.8492C58.8923 53.8637 58.7725 54.0767 58.6328 54.3188L58.3682 54.7593L58.3582 59.8666L58.3532 64.9739L58.473 65.3999C58.6178 65.8937 58.8574 66.3681 59.0371 66.5085L59.1668 66.6053L58.488 67.2395C57.7343 67.9511 57.6444 68.0624 57.3549 68.5853C57.1104 69.0258 57.0105 69.3986 56.9906 69.9117C56.9756 70.4491 56.9806 70.512 57.0355 70.7105C57.1203 70.9864 57.2501 71.4947 57.2801 71.6642C57.295 71.7513 57.325 71.8239 57.345 71.8239C57.3699 71.8239 57.3999 71.911 57.4198 72.0176C57.4398 72.1241 57.4747 72.2112 57.4997 72.2112C57.5246 72.2112 57.5446 72.2596 57.5446 72.3177C57.5446 72.429 57.6894 72.7437 58.0138 73.3488C58.0887 73.4892 58.463 74.0701 58.493 74.0992C58.508 74.1137 58.6078 74.2444 58.7176 74.3897C59.2567 75.1255 60.1402 76.0259 60.5844 76.3019C60.6843 76.36 60.7941 76.4471 60.834 76.4907C60.8689 76.5342 60.9238 76.5681 60.9488 76.5681C60.9738 76.5681 61.0786 76.6214 61.1784 76.6891C61.2782 76.7569 61.393 76.8102 61.428 76.8102C61.4629 76.8102 61.5927 76.8537 61.7175 76.9118C61.9072 76.9941 61.9321 77.0232 61.8872 77.0813C61.8473 77.1248 61.8373 77.2459 61.8573 77.4492C61.8722 77.6186 61.8872 77.8849 61.8822 78.0495C61.8822 78.2334 61.9072 78.3641 61.9471 78.3932C61.982 78.4222 62.1817 78.4803 62.3863 78.5239C62.591 78.5675 63.0852 78.6885 63.4845 78.795C64.5177 79.0612 64.7323 79.1193 65.4312 79.2839C65.7756 79.3662 66.3945 79.5211 66.8038 79.6228C67.2181 79.7245 67.7322 79.8455 67.9518 79.8842C68.1715 79.9229 68.5408 79.9859 68.7754 80.0294C69.01 80.073 69.2446 80.1117 69.2995 80.1214C69.5641 80.165 70.2879 80.3151 70.6472 80.4022C70.8669 80.4555 71.1863 80.5329 71.361 80.5668C71.5357 80.6055 71.7204 80.6539 71.7703 80.683C71.8202 80.7072 71.9301 80.7314 72.0099 80.7314C72.0898 80.7314 72.2695 80.7604 72.3993 80.7992C72.534 80.8379 72.9034 80.9396 73.2179 81.0219C73.5323 81.1042 73.8368 81.1913 73.8917 81.2155C74.0714 81.293 75.2893 81.6415 75.4141 81.6512C75.6287 81.6706 75.6487 81.656 75.9033 81.3607C76.043 81.201 76.3875 80.8718 76.672 80.6249C76.9565 80.378 77.2061 80.1505 77.226 80.1166C77.246 80.0827 77.2909 80.0537 77.3209 80.0537C77.3658 80.0537 77.5754 79.9084 77.7601 79.7438C77.8 79.7099 77.9498 79.5889 78.0846 79.4776C78.3241 79.2839 78.8782 78.8047 79.1477 78.5529C79.2675 78.4464 79.577 78.1947 79.8765 77.972C79.9264 77.9333 80.0512 77.8316 80.151 77.7542C80.2509 77.6719 80.4904 77.4831 80.6901 77.3282C81.0745 77.0329 81.0745 77.0329 81.1543 76.5923C81.1793 76.4326 81.2492 76.1179 81.3041 75.8904C81.4189 75.4305 81.5137 74.9706 81.6285 74.2928C81.6734 74.0411 81.7283 73.7797 81.7583 73.7216C81.7832 73.6587 81.8182 73.528 81.8332 73.4311C81.8431 73.3295 81.913 73.0535 81.9879 72.8163C82.2674 71.8675 82.2974 71.7416 82.3473 71.4705C82.3772 71.3204 82.4222 71.151 82.4521 71.0929C82.487 71.0397 82.497 70.9816 82.482 70.967C82.4671 70.9477 82.4721 70.9138 82.497 70.8848C82.522 70.8557 82.5769 70.6911 82.6218 70.5168C82.6667 70.3426 82.7716 69.9746 82.8564 69.6939C82.9413 69.4131 83.0111 69.1517 83.0111 69.1129C83.0161 69.0742 83.0361 69.0161 83.0561 68.9871C83.081 68.958 83.111 68.8612 83.121 68.7692C83.1359 68.6772 83.1809 68.5223 83.2208 68.4255C83.2657 68.3238 83.3156 68.1641 83.3306 68.0624C83.3456 67.9608 83.3755 67.8543 83.4005 67.8301C83.4953 67.709 83.6151 67.0749 83.6151 66.6924C83.6101 65.7581 83.3007 64.94 82.6168 64.0153C82.2474 63.5167 81.923 63.2166 81.5636 63.0423C81.329 62.9261 80.5903 62.7421 80.4655 62.7664C80.4206 62.7712 80.4056 62.747 80.4256 62.6889C80.6751 61.9143 80.775 61.5997 80.9197 61.1737C81.0994 60.6508 81.4338 59.6148 81.5087 59.3583C81.5287 59.276 81.5836 59.1017 81.6235 58.971C81.6634 58.8354 81.7084 58.6273 81.7233 58.4966C81.7433 58.3707 81.7733 58.2303 81.8032 58.1819C81.8481 58.1093 82.0029 57.4848 82.0977 56.9862C82.1177 56.8797 82.1726 56.6618 82.2175 56.5021C82.2574 56.3423 82.3173 56.0906 82.3473 55.9453C82.3772 55.8001 82.4172 55.6258 82.4321 55.5581C82.482 55.3596 82.5819 54.7012 82.6268 54.2994C82.6418 54.1784 82.6617 53.9847 82.6767 53.8637C82.6917 53.7427 82.7466 53.3312 82.8015 52.9439C82.8564 52.5566 82.9113 52.1645 82.9213 52.0725C82.9612 51.753 83.0511 51.0801 83.081 50.9107C83.096 50.8187 83.116 50.6009 83.121 50.4266C83.1309 50.2523 83.1509 50.0151 83.1709 49.8941C83.2008 49.6859 83.2358 49.3373 83.2707 48.8775C83.2807 48.7564 83.3007 48.5725 83.3206 48.466C83.3356 48.3595 83.3606 48.098 83.3755 47.885C83.3905 47.672 83.4155 47.3767 83.4254 47.2315C83.5003 46.2343 83.5153 45.6679 83.5153 43.7944C83.5203 41.9596 83.4953 41.1609 83.4155 40.1394C83.4055 40.0039 83.3855 39.6456 83.3755 39.3406C83.3606 39.0356 83.3406 38.7065 83.3306 38.6145C83.3206 38.5225 83.2857 38.1933 83.2557 37.8883C83.2258 37.5833 83.1759 37.2106 83.1509 37.0653C83.121 36.9153 83.101 36.741 83.101 36.6781C83.111 36.3247 82.7865 34.3108 82.6917 34.1269C82.6617 34.0688 82.6518 33.9768 82.6667 33.9187C82.6817 33.8606 82.6617 33.6912 82.6218 33.5411C82.5769 33.391 82.512 33.0909 82.4721 32.8779C82.4321 32.6649 82.3722 32.4131 82.3423 32.3211C82.3123 32.2292 82.2774 32.0985 82.2724 32.0307C82.2375 31.7499 82.2025 31.6095 82.1277 31.4401C82.0877 31.3384 82.0578 31.2416 82.0628 31.2222C82.0827 31.1206 81.6884 29.8764 81.5387 29.5714C81.3939 29.2713 81.1244 29.1164 80.4555 28.9324C80.141 28.8501 79.8266 28.763 79.7567 28.7388C79.6868 28.7146 79.4622 28.6662 79.2576 28.6226C79.0529 28.579 78.8183 28.5355 78.7334 28.5161C78.6536 28.5016 78.414 28.458 78.2093 28.4241C78.0047 28.3902 77.8 28.3467 77.7601 28.3321C77.6603 28.2983 77.4307 28.2644 76.8866 28.2063C76.3076 28.1433 76.2177 28.1288 76.038 28.0949C75.5239 27.9836 74.331 27.9013 73.0631 27.8868C72.2795 27.8771 71.6256 27.8771 71.6156 27.8916ZM73.2728 28.3515C73.8318 28.3563 74.4358 28.3757 74.6155 28.3999C74.7952 28.429 75.0547 28.458 75.1895 28.4677C75.6936 28.5113 76.7918 28.642 77.0363 28.6952C77.1761 28.7194 77.4456 28.763 77.6353 28.7872C77.9947 28.8356 78.6536 28.9663 79.1827 29.0922C79.3474 29.1309 79.6169 29.1938 79.7817 29.2277C80.151 29.3052 80.3856 29.3923 80.3207 29.4311C80.2509 29.4746 79.572 29.7118 78.8333 29.9539C78.0895 30.1959 77.4157 30.4283 77.2859 30.4816C76.9515 30.6268 76.3924 30.772 76.3425 30.7236C76.3176 30.6994 76.2527 30.6752 76.2078 30.6752C76.1628 30.6752 75.9282 30.5977 75.6837 30.5009C74.89 30.1863 73.8218 29.8183 73.5673 29.7699C73.4974 29.7602 73.3127 29.707 73.153 29.6586C72.9932 29.6053 72.7786 29.5521 72.6788 29.5327C72.579 29.5134 72.4691 29.4795 72.4392 29.4553C72.4043 29.4311 72.3593 29.4165 72.3394 29.4262C72.2944 29.4359 71.94 29.3633 71.4708 29.2471C71.3211 29.2084 71.0965 29.1648 70.9717 29.1503C70.8469 29.1358 70.6822 29.1019 70.5973 29.0777C70.4226 29.0244 69.03 28.7824 68.7754 28.7582C68.6806 28.7533 68.476 28.7339 68.3262 28.7146C68.1765 28.7001 67.9518 28.6759 67.8321 28.6662C67.6024 28.6468 67.4926 28.5984 67.6574 28.5887C67.7073 28.5839 67.867 28.5742 68.0018 28.5694C68.1415 28.5597 68.5458 28.5306 68.9002 28.5016C69.2596 28.4725 70.1331 28.4241 70.8469 28.3951C71.5607 28.366 72.1547 28.3321 72.1647 28.3225C72.1746 28.3128 72.1996 28.3176 72.2196 28.3273C72.2395 28.337 72.7137 28.3515 73.2728 28.3515ZM67.4926 28.6274C67.4577 28.6371 67.3978 28.6371 67.3678 28.6274C67.3329 28.6129 67.3579 28.6032 67.4277 28.6032C67.4976 28.6032 67.5226 28.6129 67.4926 28.6274ZM67.9918 29.1261C68.3013 29.1551 68.7205 29.2132 68.9252 29.2519C69.1298 29.2955 69.4792 29.3584 69.6989 29.3923C70.1381 29.4601 71.985 29.8232 72.2845 29.9006C72.5141 29.9587 72.6289 29.9926 73.4275 30.2056C73.7719 30.3024 74.1213 30.4089 74.2012 30.4477C74.2761 30.4864 74.4308 30.5445 74.5406 30.5735C74.7902 30.6462 74.7852 30.6462 75.6787 31.0286C75.8034 31.0818 75.8633 31.1399 75.8633 31.2077C75.8633 31.261 75.8883 31.2997 75.9232 31.2948C76.0131 31.2755 76.0131 55.3693 75.9232 55.8921C75.8484 56.3375 75.7186 56.6521 75.4491 57.0201C75.2444 57.3057 75.1645 57.3638 75.1645 57.2185C75.1645 57.0152 74.3809 56.4875 73.8368 56.3326L73.6322 56.2745L73.7919 55.9018C73.8767 55.6985 73.9416 55.5048 73.9316 55.4758C73.9167 55.4419 73.9366 55.3693 73.9766 55.3063C74.0265 55.2144 74.0415 52.9633 74.0415 43.6056L74.0514 32.0162L73.9267 31.8758C73.8019 31.7305 73.4225 31.5417 72.8335 31.3239C72.4941 31.2029 70.9068 30.651 70.6722 30.5784C70.6023 30.5542 70.4027 30.4816 70.223 30.4089C69.644 30.1814 68.4809 29.9152 67.5026 29.7845C67.0983 29.7264 66.8587 29.6925 66.5542 29.6344C66.0052 29.5279 65.0518 29.4891 63.1251 29.494C62.1418 29.494 61.3381 29.4843 61.3381 29.4649C61.3381 29.4117 62.4562 29.1648 62.8605 29.1261C63.0802 29.1067 63.789 29.0873 64.4329 29.0825C65.0718 29.0777 65.6059 29.068 65.6158 29.0631C65.6458 29.0293 67.5076 29.0777 67.9918 29.1261ZM81.1992 30.0798C81.2641 30.2879 81.329 30.4912 81.349 30.53C81.4139 30.651 81.5486 31.1157 81.6285 31.474C81.6734 31.6579 81.7134 31.837 81.7184 31.8709C81.7283 31.9048 81.7483 31.9484 81.7683 31.9629C81.7882 31.9823 81.8032 32.0452 81.8032 32.0985C81.8032 32.2098 81.9779 32.9747 82.0578 33.2264C82.0977 33.3523 82.2375 34.1607 82.3323 34.8094C82.3423 34.8869 82.3972 35.2064 82.4521 35.5259C82.507 35.8406 82.5469 36.1165 82.5469 36.1359C82.5419 36.1552 82.5469 36.1891 82.5519 36.2182C82.5569 36.2424 82.5669 36.3295 82.5769 36.4118C82.6018 36.741 82.6617 37.1864 82.6767 37.2154C82.6917 37.2299 82.7216 37.4817 82.7516 37.7721C82.7765 38.0626 82.8165 38.4402 82.8315 38.6145C82.8464 38.7888 82.8714 39.1034 82.8764 39.3164C82.9013 39.8489 82.9463 40.4928 82.9762 40.6961C83.0111 40.9188 83.0161 45.847 82.9812 46.5054C82.9313 47.5026 82.8614 48.3691 82.8265 48.4902C82.8165 48.5289 82.7815 48.8 82.7516 49.0953C82.7216 49.3858 82.6867 49.7343 82.6717 49.8699C82.6568 50.0006 82.6368 50.2329 82.6268 50.3782C82.6018 50.7316 82.5519 51.1624 82.522 51.2447C82.512 51.2786 82.487 51.4771 82.4721 51.6804C82.4571 51.8837 82.4271 52.1113 82.4022 52.1936C82.3772 52.271 82.3323 52.576 82.3024 52.8713C82.2674 53.1618 82.2325 53.4474 82.2175 53.5006C82.2075 53.5539 82.1776 53.8153 82.1526 54.0816C82.0927 54.7399 82.0478 55.074 81.9929 55.2144C81.9679 55.2773 81.938 55.4419 81.923 55.5774C81.908 55.713 81.8831 55.8388 81.8681 55.8631C81.8481 55.8969 81.7733 56.26 81.7233 56.5747C81.7084 56.6667 81.6784 56.7635 81.6585 56.7925C81.6385 56.8167 81.5936 56.9716 81.5586 57.1314C81.5287 57.2912 81.4338 57.6833 81.349 58.0028C81.2691 58.3223 81.1593 58.7483 81.1094 58.9516C80.9746 59.4938 80.6901 60.3991 80.3307 61.4157C80.0811 62.1177 80.0712 62.1467 79.9813 62.4468C79.9064 62.7083 79.8865 62.7276 79.7667 62.7179C79.6918 62.7131 79.5371 62.7228 79.4173 62.7421C79.1677 62.7857 79.2126 62.8244 78.7534 62.1709C78.5887 61.9289 78.1994 61.406 77.8899 61.0091C77.5804 60.6073 77.211 60.1135 77.0713 59.915C76.9265 59.7165 76.5671 59.2227 76.2627 58.8258C75.9582 58.424 75.6537 58.0173 75.5838 57.9205L75.454 57.7414L75.7336 57.417C75.8883 57.2379 76.0131 57.0491 76.0131 57.0007C76.0131 56.9523 76.0331 56.9136 76.053 56.9136C76.1129 56.9136 76.2976 56.4585 76.3924 56.0664C76.4673 55.7565 76.4773 54.7303 76.4823 43.441C76.4873 31.411 76.4873 31.1496 76.5821 31.0818C76.637 31.048 76.8017 30.9802 76.9565 30.9415C77.1112 30.8979 77.2709 30.8495 77.3109 30.835C77.3508 30.8156 77.4756 30.7769 77.5854 30.743C77.6952 30.7139 77.8549 30.6607 77.9348 30.6316C78.1494 30.559 78.8982 30.3121 79.1328 30.2443C79.2426 30.2105 79.3773 30.1669 79.4323 30.1427C79.4872 30.1185 79.7367 30.041 79.9813 29.9684C80.4006 29.8474 80.5454 29.799 80.8548 29.6731C80.9247 29.6441 81.0046 29.6392 81.0345 29.6634C81.0595 29.6876 81.1393 29.8716 81.1992 30.0798ZM65.4062 29.9733C65.7107 29.9926 66.1699 30.041 66.4294 30.0798C66.689 30.1185 67.0384 30.1717 67.2031 30.1911C67.6074 30.2443 68.441 30.3944 68.8254 30.4864C68.9501 30.5106 69.1199 30.5493 69.1997 30.5639C69.2846 30.5784 69.3744 30.6074 69.3994 30.6268C69.4293 30.6462 69.5192 30.6752 69.599 30.6946C69.6839 30.7139 69.8187 30.7575 69.8985 30.7914C70.0632 30.8592 70.2779 30.9366 70.6223 31.0528C71.1813 31.2416 71.401 31.3191 71.4808 31.3578C71.5307 31.382 71.6106 31.4014 71.6655 31.4014C71.7154 31.4014 71.9301 31.4788 72.1397 31.5708C72.3543 31.6628 72.544 31.7402 72.574 31.7402C72.5989 31.7402 72.7137 31.779 72.8335 31.8274C72.9483 31.8806 73.158 31.9629 73.2927 32.0113L73.5423 32.1081L73.5473 43.5668C73.5473 54.6092 73.5423 55.0401 73.4525 55.3789C73.3576 55.742 73.2278 56.0567 73.113 56.2019C73.0332 56.2987 73.2778 56.3423 70.2729 55.7033C67.1382 55.0352 66.7489 54.9529 65.6807 54.7399C65.3912 54.6818 65.0468 54.5995 64.912 54.5608C64.7823 54.5221 64.6325 54.493 64.5876 54.493C64.5427 54.493 64.328 54.4446 64.1084 54.3914C63.8888 54.3381 63.6093 54.2752 63.4845 54.251C63.3597 54.2316 63.205 54.1977 63.1351 54.1832C63.0652 54.1687 62.7507 54.1009 62.4363 54.038C62.1218 53.9702 61.7175 53.8831 61.5378 53.8443C61.3581 53.8008 61.1035 53.7475 60.9638 53.7185C60.1202 53.5539 59.3815 53.3941 58.9921 53.2828L58.8674 53.2489L58.8624 41.7176L58.8574 30.1911L58.9622 30.1669C59.5961 30.0217 59.9755 29.9878 61.1884 29.9684C61.9171 29.9539 62.5361 29.9345 62.561 29.9248C62.6459 29.9006 64.8322 29.9394 65.4062 29.9733ZM59.9006 53.9412C60.1302 53.9799 60.4097 54.0331 60.5295 54.0573C60.9189 54.1445 61.2133 54.2026 61.5128 54.251C61.6776 54.2752 62.0819 54.3527 62.4113 54.4204C63.1301 54.5705 63.3996 54.6237 63.8588 54.6915C64.0535 54.7206 64.2332 54.7593 64.2582 54.7835C64.2881 54.8029 64.4628 54.8368 64.6525 54.8561C64.8422 54.8755 65.0368 54.9094 65.0768 54.9287C65.1217 54.9529 65.3014 54.9965 65.4811 55.0256C65.6608 55.0546 65.8504 55.0885 65.9053 55.0982C66.2997 55.1805 66.7789 55.2724 67.2281 55.3547C67.5176 55.4128 67.9768 55.5048 68.2513 55.5581C68.5259 55.6162 68.7954 55.6694 68.8503 55.6791C69.01 55.7033 69.7538 55.8437 70.2729 55.9502C70.5324 56.0083 70.8619 56.0712 70.9967 56.0906C71.1963 56.1245 71.985 56.2842 72.8185 56.4585C72.8934 56.473 72.9683 56.5311 72.9932 56.5892C73.0282 56.6667 73.0931 56.7005 73.2179 56.7102C73.4624 56.7248 74.0165 56.87 74.0165 56.9136C74.0165 56.9329 73.9366 57.1217 73.8368 57.3299C73.6172 57.7995 73.5822 57.8818 73.5473 58.0028C73.5074 58.1432 73.3776 59.0969 73.3426 59.5277C73.3227 59.7262 73.2927 60.0215 73.2678 60.1812C73.2428 60.341 73.2079 60.6363 73.1929 60.8348C73.1779 61.0333 73.128 61.5319 73.0931 61.9434C73.0531 62.35 73.0232 62.6986 73.0282 62.7179C73.0332 62.7325 73.0232 62.8777 73.0032 63.0375C72.9833 63.1972 72.9533 63.7394 72.9383 64.2477C72.9284 64.7512 72.9034 65.5161 72.8884 65.9421C72.8285 67.9124 72.8285 68.0818 72.9034 68.5804C72.9433 68.8564 73.0132 69.1517 73.0531 69.234C73.0981 69.3114 73.163 69.4373 73.1979 69.5099C73.2378 69.5777 73.2678 69.7374 73.2678 69.8585C73.2678 70.0134 73.2927 70.0908 73.3426 70.1102C73.3826 70.1296 73.4175 70.1586 73.4175 70.1828C73.4175 70.2022 73.2428 70.391 73.0332 70.5991C72.8185 70.8073 72.549 71.0832 72.4342 71.2188C72.2345 71.4415 72.2196 71.4512 72.2196 71.335C72.2196 71.1171 72.0698 70.3619 71.96 70.0327C71.8352 69.66 71.8153 69.6067 71.6505 69.2485C71.5807 69.0984 71.5208 68.9629 71.5208 68.9435C71.5208 68.866 70.787 67.6606 70.5674 67.3799C70.223 66.9345 69.1598 65.8114 68.8254 65.5403C68.6756 65.4192 68.4061 65.1869 68.2264 65.0271C67.7722 64.6156 67.1931 64.1945 66.9286 64.0734C66.8038 64.0153 66.6141 63.9088 66.5043 63.8362C66.3047 63.7055 66.0351 63.6039 65.546 63.4731C64.6724 63.2408 62.7158 63.2262 62.2915 63.4538C62.2466 63.4731 62.032 63.5651 61.8123 63.6474C61.3481 63.8314 61.1734 63.9282 60.7491 64.2622C60.3898 64.543 60.2051 64.7609 59.8157 65.3853C59.4663 65.9469 59.3815 66.0583 59.3116 66.0631C59.2367 66.0631 59.067 65.6952 58.9572 65.3079C58.8723 64.9932 58.8674 64.6689 58.8674 59.9295V54.8852L59.1419 54.3623C59.2916 54.0719 59.4314 53.8395 59.4514 53.8492C59.4763 53.8589 59.676 53.9024 59.9006 53.9412ZM74.7502 57.3928C75.0198 57.6639 75.2145 57.9011 75.2145 57.9641C75.2145 57.9834 75.2694 58.0609 75.3392 58.1335C75.4091 58.2061 75.464 58.2787 75.464 58.2932C75.464 58.3368 75.9632 59.0533 76.1529 59.2857C76.2127 59.3583 76.2627 59.4357 76.2627 59.4599C76.2627 59.4793 76.3525 59.61 76.4623 59.7504C76.5721 59.8908 76.662 60.0167 76.662 60.0312C76.662 60.0796 77.1811 60.7622 77.246 60.8009C77.2809 60.8203 77.3109 60.8638 77.3109 60.888C77.3109 60.9171 77.3808 61.0333 77.4606 61.1495C77.5455 61.2656 77.6104 61.3818 77.6104 61.406C77.6104 61.4302 77.6403 61.4786 77.6802 61.5077C77.7451 61.5609 78.1794 62.1515 78.2892 62.3452C78.3241 62.3984 78.434 62.5243 78.5388 62.6308C78.6536 62.747 78.7085 62.8341 78.6835 62.8632C78.6336 62.9067 78.1544 63.0278 78.1395 63.0036C78.1295 62.9939 78.0746 62.9019 78.0097 62.7954C77.85 62.5291 77.3808 62.0644 77.1112 61.9143C76.8367 61.7546 76.4673 61.7449 76.2726 61.8853C75.9931 62.0886 75.8034 62.7373 75.9532 62.9794C76.0231 63.0859 76.0181 63.1101 75.9282 63.2359C75.6238 63.6571 75.499 64.0637 75.5838 64.3736C75.6138 64.4752 75.5888 64.5236 75.4291 64.664C74.9998 65.0368 74.316 66.0583 74.316 66.3197C74.316 66.3729 74.2761 66.4697 74.2261 66.5375C74.1413 66.6585 74.1363 66.8328 74.1413 68.9677C74.1463 70.2312 74.1313 71.3398 74.1113 71.4269C74.0714 71.6061 73.6871 72.1676 73.3726 72.5162C73.153 72.7485 72.6388 73.1649 72.3444 73.344C72.2645 73.3972 72.0349 73.5522 71.8402 73.6925C71.5158 73.9298 71.386 74.0024 70.7022 74.3509C70.233 74.5881 69.3145 74.8786 69.2446 74.8108C69.2347 74.8011 69.5891 74.4477 70.0283 74.0217C70.4725 73.6006 70.8719 73.2133 70.9168 73.1649C71.1714 72.8841 71.6256 72.4629 71.6905 72.4387C71.7454 72.4145 71.7603 72.3709 71.7404 72.2596C71.7204 72.1676 71.7304 72.1144 71.7653 72.1144C71.7953 72.1144 71.8153 72.1289 71.8153 72.1483C71.7953 72.2596 71.8302 72.308 71.9351 72.308C72.1697 72.308 72.2545 72.2451 72.544 71.8578C72.7087 71.64 73.0781 71.2285 73.3676 70.938C73.9017 70.4055 74.0115 70.2651 74.0165 70.1199C74.0165 70.0763 73.9167 69.8488 73.7969 69.6116C73.3027 68.653 73.2977 68.6046 73.3926 65.9421C73.4075 65.4628 73.4275 64.7899 73.4425 64.4462C73.4525 64.1025 73.4724 63.6232 73.4924 63.3812C73.5074 63.1391 73.5323 62.7567 73.5423 62.5291C73.5723 62.1031 73.6022 61.7449 73.6471 61.3673C73.6621 61.2463 73.6821 61.0381 73.6921 60.9074C73.702 60.7719 73.737 60.4814 73.7619 60.2539C73.8218 59.7746 73.8967 59.0969 73.9366 58.6708C73.9716 58.3078 74.1812 57.6397 74.3509 57.3589C74.4208 57.2476 74.4857 57.1556 74.4957 57.1556C74.5057 57.1556 74.6205 57.2621 74.7502 57.3928ZM77.7102 63.2069C77.7102 63.2311 77.6852 63.2553 77.6553 63.2553C77.6303 63.2553 77.6203 63.2311 77.6353 63.2069C77.6503 63.1778 77.6753 63.1585 77.6902 63.1585C77.7002 63.1585 77.7102 63.1778 77.7102 63.2069ZM80.9397 63.5264C81.1244 63.5651 81.339 63.5893 81.4139 63.5748C81.5237 63.5554 81.5986 63.5942 81.8282 63.7927C81.9779 63.9282 82.1027 64.0589 82.1027 64.088C82.1027 64.1122 82.1776 64.2187 82.2674 64.3203C82.3523 64.422 82.512 64.6786 82.6168 64.8867C82.7216 65.0949 82.8414 65.3273 82.8814 65.3999C82.9213 65.4773 82.9513 65.579 82.9513 65.6226C82.9513 65.671 82.9662 65.7242 82.9862 65.7387C83.0211 65.7775 83.0461 65.9179 83.076 66.2325C83.081 66.339 83.106 66.4649 83.126 66.5133C83.1908 66.6634 82.9912 67.6219 82.7366 68.3868C82.6717 68.5853 82.5669 68.9338 82.507 69.1613C82.4421 69.3889 82.3623 69.6503 82.3223 69.7423C82.2874 69.8342 82.2425 69.9988 82.2225 70.1053C82.2025 70.2118 82.1576 70.3571 82.1227 70.4297C82.0827 70.5023 82.0528 70.604 82.0528 70.6524C82.0528 70.7056 82.0178 70.8557 81.9779 70.9816C81.908 71.1994 81.6634 72.1337 81.6335 72.308C81.6235 72.3467 81.6035 72.4145 81.5886 72.4532C81.5686 72.492 81.5237 72.6517 81.4838 72.8066C81.4438 72.9567 81.3989 73.1019 81.3789 73.1261C81.354 73.1697 81.2292 73.7603 81.1543 74.2202C81.0695 74.7188 80.8998 75.5418 80.78 76.0162C80.7101 76.2873 80.6552 76.5633 80.6552 76.631C80.6552 76.7666 80.6003 76.815 79.7767 77.4395C79.4822 77.667 79.1477 77.9333 79.0329 78.0398C78.9231 78.1414 78.6186 78.4029 78.3591 78.6207C78.0995 78.8337 77.795 79.0903 77.6852 79.192C77.5754 79.2888 77.3758 79.4534 77.236 79.5502C76.9016 79.7922 75.9133 80.6346 75.9133 80.6733C75.9133 80.6927 75.8384 80.7653 75.7485 80.8331L75.5888 80.9589L75.5988 76.936C75.6138 72.8986 75.6138 70.9186 75.6138 68.3142C75.6138 67.5396 75.6188 66.8522 75.6287 66.7796C75.6487 66.6392 76.053 65.8259 76.1379 65.7484C76.1678 65.7194 76.2277 65.6468 76.2726 65.579C76.3825 65.4096 77.1062 64.6398 77.1761 64.6156C77.211 64.6059 77.2709 64.5721 77.3109 64.5382C77.3508 64.5043 77.5305 64.4026 77.7102 64.3155C77.8899 64.2283 78.0446 64.1412 78.0596 64.1218C78.1045 64.0637 78.9081 63.7394 79.013 63.7394C79.0629 63.7394 79.1877 63.6958 79.2925 63.6426C79.4622 63.5603 79.9863 63.4731 80.4405 63.4538C80.5254 63.4538 80.75 63.4828 80.9397 63.5264ZM77.9099 63.6619C77.9099 63.6765 77.7751 63.7491 77.6104 63.8314C77.1062 64.0831 76.9066 64.2235 76.4873 64.6301C76.0281 65.0707 75.5938 65.6855 75.3043 66.3003L75.1046 66.7166L75.1096 67.3702C75.1146 67.7284 75.1196 68.0673 75.1196 68.1205C75.1246 68.2803 75.1246 70.086 75.1196 70.3716C75.1196 70.5168 75.1196 70.8993 75.1196 71.2188C75.1196 71.5383 75.1196 71.974 75.1096 72.187C75.1046 72.4 75.0996 72.6614 75.1046 72.7679C75.1046 72.8744 75.1096 73.4602 75.1096 74.075C75.1096 74.685 75.1146 75.6774 75.1146 76.2777C75.1196 76.8779 75.1246 77.4976 75.1196 77.6573C75.1146 79.647 75.1196 80.7895 75.1446 80.8476C75.1795 80.9396 75.0497 80.9977 74.9299 80.9444C74.88 80.925 74.8251 80.9105 74.8052 80.9154C74.6604 80.9444 74.6554 80.7459 74.6454 73.799C74.6354 67.133 74.6354 66.8038 74.7253 66.6101C74.7752 66.4988 74.8151 66.3778 74.8151 66.339C74.8151 66.1357 75.3742 65.3708 75.8633 64.9061C76.3924 64.4026 76.7568 64.1509 77.3608 63.8653C77.815 63.6523 77.9099 63.6184 77.9099 63.6619ZM65.4212 63.9379C65.7406 64.0153 66.09 64.1364 66.1899 64.1993C66.2947 64.2671 66.3895 64.3203 66.3995 64.3203C66.4145 64.3203 66.5243 64.3833 66.6441 64.4656C66.7689 64.543 66.8787 64.6108 66.8937 64.6108C66.9735 64.6108 67.5226 65.0174 67.9568 65.3999C68.2314 65.6468 68.5259 65.9033 68.6057 65.9711C69.1049 66.402 70.0383 67.4331 70.3927 67.9462C70.6622 68.3384 71.2712 69.476 71.2712 69.5922C71.2712 69.6358 71.2912 69.6939 71.3161 69.7181C71.4708 69.8827 71.7753 71.3108 71.7703 71.8481C71.7653 72.0805 71.6855 71.8917 71.6505 71.5577C71.6056 71.1801 71.3461 70.4055 71.1813 70.1586C71.1065 70.0473 71.0216 69.902 70.9867 69.8294C70.9567 69.7568 70.822 69.5583 70.6872 69.384C70.5574 69.2098 70.2629 68.8225 70.0333 68.5175C69.5641 67.893 69.2397 67.5251 68.6556 66.9393C68.2064 66.4843 67.1033 65.579 67.0035 65.579C66.9885 65.579 66.8138 65.4628 66.6141 65.3224C66.4145 65.1869 66.1998 65.0465 66.13 65.0126C65.7955 64.8625 65.0318 64.6689 64.1833 64.5236C63.8239 64.4607 62.2965 64.4849 61.9122 64.5624C61.7474 64.5914 61.5528 64.6592 61.4829 64.7124C61.408 64.7609 61.3282 64.8044 61.3082 64.8044C61.2533 64.8044 60.7042 65.2208 60.4546 65.4531C60.3348 65.5596 60.24 65.6226 60.24 65.5935C60.24 65.5596 60.265 65.5209 60.2949 65.5064C60.3249 65.487 60.3598 65.4338 60.3798 65.3805C60.4347 65.245 60.839 64.7899 61.0736 64.6059C61.3481 64.3929 61.9471 64.0686 62.2366 63.9815C62.3614 63.9476 62.4862 63.8992 62.5111 63.8798C62.6459 63.783 63.1251 63.7442 63.9487 63.7684C64.7274 63.7878 64.907 63.8072 65.4212 63.9379ZM63.9337 64.9787C64.1933 65.0174 64.5527 65.0707 64.7323 65.0997C65.2465 65.1869 66.085 65.458 66.1799 65.5741C66.1948 65.5887 66.3695 65.7097 66.5742 65.8404C66.7739 65.9711 66.9635 66.1067 66.9985 66.1357C67.0284 66.1648 67.1332 66.2422 67.2331 66.31C67.7771 66.6634 68.6307 67.5154 69.3245 68.3868C69.4193 68.5078 69.5292 68.6337 69.5641 68.6724C69.599 68.7111 69.7687 68.9387 69.9385 69.1807C70.233 69.6116 70.2829 69.6745 70.4077 69.81C70.4376 69.8439 70.5125 69.9746 70.5724 70.0957C70.6323 70.2167 70.7121 70.3426 70.7521 70.3764C70.792 70.4055 70.822 70.4491 70.822 70.4684C70.822 70.4878 70.8619 70.5894 70.9068 70.6911C70.9517 70.7976 70.9917 70.8896 70.9967 70.9041C71.0016 70.9186 71.0166 70.9622 71.0316 71.0009C71.0815 71.1365 71.1664 71.5577 71.1963 71.8336C71.2362 72.1676 71.2113 72.2064 70.6323 72.7679C68.6307 74.7092 67.9269 75.353 67.5575 75.5805C67.4128 75.6677 67.4128 75.6677 67.4677 75.5709C67.5276 75.4644 67.5525 74.8834 67.5126 74.5591C67.4826 74.2783 67.3728 73.954 67.253 73.7603C67.1981 73.6683 67.1233 73.5376 67.0883 73.4699C66.9486 73.1891 66.3795 72.3903 66.0501 72.0127C65.4112 71.2866 64.2282 70.1683 63.8339 69.9165C63.6292 69.781 63.3697 69.6019 63.2549 69.5147C63.1401 69.4276 63.0302 69.355 63.0053 69.355C62.9803 69.355 62.8605 69.2872 62.7358 69.2098C62.611 69.1275 62.4462 69.0306 62.3614 68.9968C62.022 68.8467 61.6426 68.7063 61.3132 68.5998C61.1235 68.5417 60.834 68.4449 60.6793 68.3916C60.25 68.2464 59.1968 68.106 58.503 68.0963H58.2883L58.9123 67.5009C60.2799 66.1986 61.0486 65.5306 61.5528 65.2208C61.7874 65.0755 61.9171 65.032 62.2965 64.9787C62.9105 64.8916 63.3597 64.8916 63.9337 64.9787ZM59.5811 68.653C59.9156 68.6869 60.22 68.7353 60.255 68.7644C60.2849 68.7886 60.3947 68.8273 60.4896 68.8467C60.6992 68.8854 61.2483 69.0548 61.4879 69.1517C61.5827 69.1952 61.7774 69.2727 61.9122 69.3259C62.3165 69.4905 62.7358 69.7277 63.0852 69.9843C63.2648 70.115 63.4296 70.2215 63.4495 70.2264C63.5993 70.2312 64.1533 70.725 65.2115 71.8045C65.6957 72.2983 66.085 72.7582 66.2248 73.01C66.2847 73.1165 66.4444 73.3779 66.5792 73.5909L66.8188 73.9782L66.699 74.0121C66.6141 74.0314 66.4095 73.983 66.0401 73.8475C65.7456 73.741 65.4062 73.6248 65.2864 73.586C65.1666 73.5522 64.947 73.4553 64.8022 73.373C64.6525 73.2956 64.4029 73.16 64.2482 73.0729C63.5593 72.7001 62.8106 72.0563 62.4512 71.5286C62.2965 71.3059 62.1468 71.243 62.0519 71.3689C62.017 71.4173 61.987 71.5044 61.987 71.5625C61.987 71.6932 62.2116 72.0272 62.4462 72.2499C62.5361 72.3371 62.6459 72.4436 62.6908 72.492C62.9753 72.7824 63.6292 73.2762 63.9337 73.4263C64.0585 73.4892 64.2282 73.5812 64.3081 73.6393C64.4728 73.7506 64.5327 73.7797 65.0568 73.9975C65.491 74.1766 65.8554 74.3025 66.3047 74.4332C66.5842 74.5155 66.689 74.5252 66.8288 74.4865C67.0434 74.4284 67.0334 74.4235 67.0184 74.4962C67.0135 74.53 67.0284 74.685 67.0484 74.8399C67.0933 75.1884 67.0135 75.5515 66.8637 75.6822C66.7239 75.7984 66.09 76.1808 66.0301 76.1808C66.0052 76.1808 65.9103 76.2244 65.8205 76.2728C65.7306 76.3261 65.4112 76.4519 65.1067 76.5488C64.5576 76.723 64.5576 76.7279 63.5394 76.7472L62.5161 76.7666L62.1667 76.5972C61.9721 76.51 61.6376 76.3551 61.428 76.2583C60.854 75.9969 60.2949 75.537 59.656 74.8011C59.2168 74.2928 58.5479 73.3585 58.3582 72.9858C57.6794 71.6448 57.3649 70.2312 57.5696 69.3986C57.6295 69.1371 57.8691 68.7305 58.0088 68.6434C58.0937 68.5901 58.6328 68.5369 58.8174 68.5659C58.9023 68.5756 59.2417 68.6143 59.5811 68.653ZM74.1513 73.6877C74.1513 74.4477 74.1363 75.0674 74.1213 75.0674C74.1063 75.0674 73.9816 75.0335 73.8468 74.9948C73.712 74.9561 73.5124 74.9222 73.4075 74.9222C73.2977 74.9222 73.1729 74.9028 73.123 74.8738C73.0731 74.8496 72.6788 74.7963 72.2395 74.7527C71.8053 74.7092 71.396 74.6656 71.3311 74.6462C71.2163 74.622 71.2163 74.6172 71.371 74.53C71.4559 74.4768 71.5457 74.4381 71.5707 74.4381C71.5956 74.4381 71.8003 74.3074 72.0299 74.1428C72.2595 73.983 72.4991 73.8184 72.569 73.77C73.153 73.4021 73.7519 72.8696 73.9766 72.5355C74.0564 72.4097 74.1313 72.308 74.1413 72.308C74.1513 72.308 74.1563 72.9277 74.1513 73.6877ZM70.7121 75.019C70.787 75.019 71.0166 75.048 71.2213 75.0868C71.4259 75.1255 71.7853 75.1691 72.0199 75.1836C72.2545 75.1981 72.6039 75.2417 72.7936 75.2852C72.9883 75.324 73.2129 75.3579 73.2927 75.3579C73.3776 75.3579 73.5323 75.3917 73.6421 75.4305C73.7519 75.4692 73.9117 75.4982 73.9965 75.5031H74.1463L74.1513 77.7881C74.1563 79.0467 74.1613 80.2086 74.1662 80.3732C74.1762 80.5378 74.1662 80.6927 74.1463 80.7217C74.1163 80.775 73.7669 80.6975 73.0931 80.4893C72.9284 80.4409 72.6987 80.3877 72.5839 80.3732C72.4691 80.3635 72.3344 80.3296 72.2845 80.3054C72.2345 80.2812 72.1048 80.2473 71.9949 80.2328C71.8851 80.2182 71.6705 80.1747 71.5208 80.136C70.7621 79.9326 70.4775 79.8649 70.2729 79.8406C70.1481 79.8261 69.7787 79.7632 69.4493 79.6954C69.1199 79.6325 68.6057 79.5308 68.3013 79.4727C68.0018 79.4195 67.2231 79.2404 66.5792 79.0806C65.9353 78.916 65.2515 78.7563 65.0568 78.7224C64.8671 78.6885 64.6425 78.6352 64.5576 78.6013C64.368 78.5287 63.8838 78.398 63.5593 78.3351C63.205 78.2673 62.596 78.0882 62.4862 78.0156C62.3814 77.9478 62.3664 77.8994 62.3514 77.5702C62.3364 77.1829 62.3464 77.1684 62.5511 77.241C62.7058 77.2991 64.1533 77.2265 64.8771 77.1248C66.3196 76.9264 67.3629 76.4471 68.461 75.4789C68.7804 75.1933 68.8703 75.1352 68.8952 75.1981C68.9452 75.3191 69.644 75.2562 70.1481 75.0819C70.3677 75.0045 70.5574 74.9609 70.5624 74.9803C70.5724 75.0045 70.6423 75.019 70.7121 75.019Z" fill="#373737"/>
<path d="M63.2199 34.7077C62.8406 34.7997 62.3165 35.4678 62.2665 35.9277C62.2566 36.0342 62.2316 36.2375 62.2116 36.3779C62.1617 36.7119 62.2965 37.2105 62.5061 37.4865C62.591 37.593 62.7707 37.7576 62.9005 37.8447C63.1251 37.9948 63.18 38.0045 63.6093 38.0238C63.9936 38.0432 64.1184 38.0287 64.358 37.9415C64.907 37.7431 65.1217 37.5833 65.3163 37.2348C65.4411 37.0072 65.4561 36.8136 65.4162 36.1165C65.4012 35.826 65.2265 35.5452 64.917 35.3032C64.8072 35.2209 64.6525 35.095 64.5676 35.0272C64.1384 34.6835 63.7191 34.5819 63.2199 34.7077ZM63.9587 35.3371C64.4678 35.584 64.7723 35.9616 64.7773 36.3634C64.7823 36.6974 64.6575 37.0556 64.4628 37.2783C64.2831 37.4816 64.0834 37.5446 63.5893 37.5494C63.0053 37.5543 62.6709 37.1137 62.7058 36.3876C62.7258 35.947 62.8505 35.6178 63.0901 35.3855C63.2748 35.2015 63.2998 35.1918 63.5244 35.216C63.6542 35.2257 63.8488 35.2838 63.9587 35.3371Z" fill="#373737"/>
</g>
<defs>
<clipPath id="clip0_448_1290">
<rect width="33" height="57" fill="white" transform="translate(26 5.90225)"/>
</clipPath>
<clipPath id="clip1_448_1290">
<rect width="40" height="59" fill="white" transform="translate(49 24.9023)"/>
</clipPath>
</defs>
</svg>
